<?xml version="1.0" encoding="UTF-8" standalone="no"?>
<svg
   xmlns:dc="http://purl.org/dc/elements/1.1/"
   xmlns:cc="http://creativecommons.org/ns#"
   xmlns:rdf="http://www.w3.org/1999/02/22-rdf-syntax-ns#"
   xmlns:svg="http://www.w3.org/2000/svg"
   xmlns="http://www.w3.org/2000/svg"
   version="1.1"
   id="svg6936"
   viewBox="0 0 952.78931 198.47632"
   height="56.014427mm"
   width="268.89832mm">
  <defs
     id="defs6938" />
  <metadata
     id="metadata6941">
    <rdf:RDF>
      <cc:Work
         rdf:about="">
        <dc:format>image/svg+xml</dc:format>
        <dc:type
           rdf:resource="http://purl.org/dc/dcmitype/StillImage" />
        <dc:title></dc:title>
      </cc:Work>
    </rdf:RDF>
  </metadata>
  <g
     transform="translate(139.20661,-370.26691)"
     id="layer1">
    <path
       id="path5872-3"
       d="m 60.532654,432.8288 c -12.329365,3.47559 -25.714963,3.10028 -37.83021,-1.0607 -14.4880957,-4.97593 -27.0308776,-15.388 -34.61819,-28.6958 -2.678227,-4.69749 -4.764765,-9.74215 -7.839591,-14.19015 -1.537414,-2.224 -3.324965,-4.29426 -5.448939,-5.96715 -2.123974,-1.67289 -4.59679,-2.94084 -7.24761,-3.4728 -2.62314,-0.5264 -5.375409,-0.31857 -7.926662,0.48708 -2.551254,0.80565 -4.902434,2.19909 -6.912603,3.96464 -4.020339,3.53111 -6.612896,8.46337 -8.131307,13.59428 -3.061796,10.34622 -1.991289,21.58128 1.27207,31.8657 6.664347,21.00258 22.675301,38.84679 42.835432,47.7401"
       style="opacity:1;fill:none;fill-rule:evenodd;stroke:#b4c4cf;stroke-width:13.80000019;stroke-linecap:round;stroke-linejoin:round;stroke-miterlimit:4;stroke-dasharray:none;stroke-opacity:1" />
    <path
       id="path5868-8"
       d="m 166.50992,399.6912 c -8.72442,-3.12358 -18.03482,-4.60171 -27.29768,-4.3338 -3.36262,0.0973 -6.73454,0.42515 -9.98876,1.27764 -3.25422,0.85249 -6.39656,2.24448 -9.03863,4.32682 -2.64207,2.08234 -4.76656,4.88067 -5.78666,8.0863 -1.02009,3.20564 -0.87773,6.81949 0.64916,9.81704 0.92048,1.80707 2.31908,3.3599 3.98761,4.51263 1.66853,1.15273 3.602,1.90817 5.60088,2.25058 3.99777,0.68481 8.18089,-0.29969 11.70152,-2.31371 4.57906,-2.61951 8.11293,-6.96993 9.86895,-11.94447 1.75602,-4.97453 1.74679,-10.53008 0.10603,-15.54382 -1.64075,-5.01373 -4.88389,-9.46831 -9.0671,-12.6824 -4.18321,-3.21409 -9.28154,-5.192 -14.5239,-5.78131 -7.29659,-0.82023 -14.75081,1.03223 -21.21947,4.50634 -6.468661,3.4741 -12.003702,8.50771 -16.719038,14.13608 -9.430672,11.25675 -15.662501,24.81146 -24.061488,36.85758 -14.339911,20.5668 -35.093764,36.51255 -58.5000004,45.5 -32.7267376,12.56631 -71.0304526,11.04945 -101.6837816,-5.9601 -3.020122,-1.67587 -5.977002,-3.49879 -9.187002,-4.77377 -3.20999,-1.27497 -6.74456,-1.98364 -10.13443,-1.32153 -3.45341,0.67452 -6.55018,2.76025 -8.75739,5.50053 -2.20722,2.74029 -3.56372,6.1013 -4.23741,9.55487 -1.37465,7.04696 0.0558,14.48896 3.32994,20.87875 3.27412,6.38979 8.30986,11.77132 14.05923,16.0718 11.49873,8.60094 25.541243,12.89153 38.952802,18.02255 26.000561,9.94734 51.352382,23.74498 79.1442016,25.3554 20.2437684,1.17304 40.8578074,-4.51292 57.5138404,-16.0785 13.854967,-9.62059 24.911795,-23.22224 31.5,-38.75"
       style="fill:none;fill-rule:evenodd;stroke:#1d456c;stroke-width:13.80000019;stroke-linecap:round;stroke-linejoin:round;stroke-miterlimit:4;stroke-dasharray:none;stroke-opacity:1" />
    <path
       id="path8200"
       d="m 560.4621,545.75274 c -3.16661,-1.71818 -2.8291,-3.03957 3.00207,-11.75332 4.91768,-7.34867 10.51853,-17.29322 15.61239,-27.72048 l 2.00681,-4.10799 -4.93608,-4.59325 c -2.71485,-2.52628 -5.76987,-5.21097 -6.78895,-5.96598 -1.01908,-0.75501 -2.798,-2.55393 -3.95316,-3.99762 -1.15517,-1.4437 -3.52777,-3.89771 -5.27246,-5.45336 -1.74469,-1.55566 -5.18768,-5.85498 -7.65109,-9.55405 -5.04302,-7.57264 -5.44987,-9.28062 -2.92536,-12.28083 3.28933,-3.90915 6.65168,-1.86182 15.04977,9.16377 2.55228,3.3508 6.54408,8.22194 8.87069,10.82476 4.28205,4.79041 11.33738,11.16985 12.35329,11.16985 0.77635,0 2.43555,-3.4191 6.00641,-12.37735 1.69371,-4.24902 4.36696,-10.69592 5.94055,-14.32643 1.57359,-3.63052 3.04217,-7.58751 3.26351,-8.79332 0.4017,-2.18835 0.82161,-2.53996 4.26368,-3.57015 2.661,-0.79643 5.41921,0.31742 6.34989,2.56427 1.1914,2.87628 -0.1597,7.99929 -4.56264,17.30026 -2.10922,4.45563 -4.122,9.45134 -4.47284,11.10157 -1.42649,6.70972 -3.9494,11.78975 -12.15137,24.46752 -2.94098,4.54588 -6.16924,10.08166 -7.17392,12.30175 -1.00466,2.22009 -2.35627,4.7831 -3.00357,5.69559 -0.64729,0.91249 -2.70839,4.35583 -4.58023,7.65187 -1.87183,3.29604 -4.75352,7.5975 -6.40376,9.55881 -2.60461,3.09558 -3.2775,3.56728 -5.10072,3.57569 -1.15517,0.005 -2.83947,-0.39137 -3.74291,-0.88158 z m 135.76162,-35.41267 c -2.8054,-0.8038 -6.89427,-1.8797 -9.08638,-2.39087 -4.77846,-1.11428 -9.33508,-3.8325 -9.84759,-5.87449 -0.47923,-1.90939 1.16011,-5.04622 3.09884,-5.92956 1.12968,-0.51472 2.06636,-0.51642 3.72167,-0.007 11.87064,3.6548 16.94856,4.99238 20.7396,5.46304 8.43024,1.04662 13.21723,-0.94369 16.6343,-6.91611 2.27831,-3.98207 2.31935,-5.41327 0.25619,-8.9338 -2.09447,-3.57394 -6.77066,-6.47303 -13.4867,-8.36132 -9.56225,-2.68855 -15.58586,-6.40336 -17.77687,-10.96315 -1.35626,-2.82258 -1.55187,-11.50172 -0.32483,-14.41221 0.71039,-1.68498 4.40416,-6.29467 11.17323,-8.67703 6.76907,-2.38236 15.94333,-2.03022 22.80249,0.13617 3.30047,1.05448 6.36843,2.26893 6.8177,2.69877 0.44926,0.42983 0.95464,2.00399 1.12305,3.49813 0.26338,2.33669 0.0922,2.93059 -1.22388,4.24669 -1.50799,1.50799 -1.57187,1.51704 -4.42352,0.6267 -7.81999,-2.44155 -10.11881,-2.81045 -15.79485,-2.53469 -8.41336,0.40874 -10.80194,1.96999 -10.80194,7.06044 0,4.88231 2.05079,6.93774 8.40119,8.42015 12.19437,2.84662 21.016,8.70692 24.64088,16.36919 2.92016,6.17265 2.24776,9.27639 -3.92892,18.13558 -3.57743,5.13109 -4.17982,5.7065 -7.12937,6.81006 -4.42037,1.65387 -12.36311,3.09089 -16.79933,3.03936 -2.02633,-0.0235 -5.97957,-0.70045 -8.78496,-1.50427 z m -200.56876,-2.0961 c -1.93772,-1.12903 -2.80816,-6.2673 -3.14415,-18.55998 -0.38226,-13.98562 -1.24187,-26.88837 -2.03894,-30.60434 -0.66746,-3.11173 -0.31139,-5.65964 0.93557,-6.69453 0.47755,-0.39632 2.18838,-0.73993 3.80186,-0.76356 2.68128,-0.0393 3.1636,0.18269 5.60795,2.5809 l 2.67436,2.62387 5.00311,-3.59349 c 2.7517,-1.97642 5.92102,-3.89977 7.04292,-4.27411 2.89871,-0.96719 9.00337,-0.84232 14.04402,0.28728 5.66517,1.26955 6.41935,1.98073 6.41935,6.05337 0,2.6343 -0.27341,3.50814 -1.47294,4.70767 -1.84483,1.84484 -4.25171,1.90154 -9.04935,0.21319 -6.33957,-2.23097 -9.79546,-1.09778 -16.72426,5.48391 l -4.38005,4.16062 -0.37219,9.45955 c -0.24292,6.17412 -0.10231,11.96054 0.40484,16.66056 0.8543,7.91727 0.51297,10.52674 -1.56757,11.98401 -1.47726,1.03471 -5.60927,1.19292 -7.18453,0.27508 z m 151.00766,-0.60385 c -5.90141,-1.71301 -7.37132,-8.98739 -2.89178,-14.31102 2.9215,-3.47202 8.68531,-3.53942 11.73436,-0.13723 1.4938,1.66682 2.91316,6.1931 2.91316,9.28996 0,4.26741 -5.90244,6.85734 -11.75574,5.15829 z M 304.6071,507.10063 c -2.31871,-0.93723 -6.11645,-6.69222 -11.29532,-17.1166 -3.97918,-8.00954 -6.12953,-14.30229 -6.66446,-19.50277 -0.22067,-2.1453 -0.91308,-5.61245 -1.53869,-7.70478 -1.46154,-4.88809 -2.45459,-11.1103 -1.97334,-12.36442 0.52669,-1.37252 3.40381,-2.73573 5.75091,-2.72484 3.71295,0.0172 4.26468,1.00751 6.52523,11.71209 1.0399,4.92431 2.8283,11.66006 3.97421,14.96833 1.91126,5.51786 6.84034,15.79424 8.90637,18.56844 0.84311,1.13211 0.87931,1.13229 2.11861,0.0107 2.52404,-2.28422 5.53774,-7.01401 7.16205,-11.24032 6.69734,-17.4259 13.73618,-32.54964 17.14844,-36.84535 3.00591,-3.78415 10.30327,0.18938 8.9004,4.84642 -0.21057,0.69901 -3.04033,6.8357 -6.28837,13.63708 -3.24803,6.80138 -6.72939,14.44014 -7.73636,16.97502 -2.19978,5.53765 -5.11635,11.40315 -6.8942,13.86495 -0.71506,0.99015 -1.82485,2.82732 -2.46621,4.08261 -3.42729,6.70806 -10.70761,10.82278 -15.62927,8.8334 z m 501.01674,-0.13691 c -2.21089,-1.05851 -3.26578,-4.89669 -3.92444,-14.27931 -0.33592,-4.78568 -0.56582,-10.32146 -0.51085,-12.30174 0.15242,-5.49391 -0.90793,-11.49449 -2.66618,-15.08827 -3.11636,-6.36964 -8.83298,-7.22317 -17.97622,-2.68398 -2.64614,1.31369 -5.73272,3.34268 -6.85907,4.50887 -2.57877,2.66999 -2.84267,4.43464 -3.41222,22.81649 -0.41233,13.30786 -0.47568,13.83971 -1.80694,15.17097 -1.60531,1.60531 -4.27971,1.80085 -6.80063,0.49724 -3.25523,-1.68336 -3.61482,-6.56846 -1.86379,-25.32025 0.3441,-3.68492 0.75589,-12.19113 0.91509,-18.90268 0.1592,-6.71155 0.57296,-14.36312 0.91947,-17.0035 0.3465,-2.64037 0.86935,-8.71623 1.16188,-13.50191 0.29252,-4.78568 0.83107,-10.0071 1.19676,-11.60316 0.85862,-3.74749 2.73053,-7.39329 4.19973,-8.17958 1.99226,-1.06623 5.32059,-0.73782 6.72163,0.66322 1.18219,1.18219 1.25605,1.71445 0.93681,6.75096 -0.19061,3.00717 -1.17318,11.53451 -2.1835,18.94965 -1.82882,13.42249 -2.1962,18.0224 -1.43941,18.0224 0.21864,0 1.63881,-0.79653 3.15593,-1.77007 5.53168,-3.54966 8.23906,-4.38745 14.41878,-4.46184 8.51468,-0.10249 12.71833,1.72464 16.63191,7.22913 3.94934,5.55483 4.8356,10.34763 6.7821,36.67464 0.53437,7.22772 0.49639,8.83277 -0.24286,10.26235 -1.51347,2.92671 -5.07012,4.6438 -7.35398,3.55037 z m -582.50878,-2.28684 c -4.74795,-0.83528 -15.22199,-8.87788 -16.95102,-13.01601 -1.12121,-2.68345 -1.03178,-12.10144 0.16088,-16.94067 1.97482,-8.01287 7.03201,-16.95891 12.62534,-22.33388 2.51954,-2.42117 3.78454,-3.07149 9.50717,-4.88746 3.63051,-1.15208 7.54607,-2.28663 8.70123,-2.52123 1.15517,-0.23459 2.81277,-1.09482 3.68358,-1.91161 0.89945,-0.84367 2.6024,-1.62178 3.94289,-1.80157 2.08835,-0.28011 2.53912,-0.10318 3.9209,1.53897 2.26467,2.69141 4.02076,7.81909 5.36864,15.67614 0.65112,3.79554 1.55115,8.11615 2.00006,9.60136 0.4489,1.48521 1.13397,4.32062 1.52236,6.3009 1.14957,5.86126 2.7746,8.61877 8.16728,13.85911 5.98994,5.82073 6.2603,6.92395 2.59504,10.58921 -2.03942,2.03941 -2.67436,2.34995 -4.18655,2.04751 -5.13262,-1.02652 -10.70835,-7.37022 -13.5018,-15.36145 l -0.74566,-2.13311 -2.74337,5.85398 c -3.08972,6.59307 -7.84623,12.19459 -12.04849,14.18899 -3.0036,1.4255 -8.04379,1.95006 -12.01848,1.25082 z m 9.07705,-10.76904 c 3.1914,-1.44875 6.01315,-5.69971 9.56934,-14.4162 3.47174,-8.50947 3.57771,-9.74324 1.54715,-18.01165 l -1.69475,-6.90098 -3.87783,0.20619 c -2.1328,0.1134 -4.99103,0.69056 -6.35162,1.28258 -7.22156,3.14222 -13.77681,13.16477 -15.20461,23.24683 -0.51037,3.60386 -0.43419,4.17464 0.89473,6.70424 2.01869,3.84257 2.60964,4.49165 6.30541,6.9256 3.68878,2.42936 5.21525,2.59624 8.81218,0.96339 z m 192.46567,10.71291 c -2.37867,-0.46133 -4.27503,-1.54889 -8.8445,-5.07229 -7.7205,-5.95308 -8.49831,-7.41233 -8.4566,-15.86532 0.0271,-5.48812 0.28551,-7.05511 2.00337,-12.14784 2.20703,-6.54293 6.23581,-13.48924 10.7273,-18.49572 2.85016,-3.17695 3.29834,-3.43107 9.19778,-5.21526 3.4109,-1.03157 7.41681,-2.18573 8.90202,-2.56481 1.48521,-0.37907 3.24046,-1.17141 3.90055,-1.76074 2.92046,-2.60741 6.60169,-3.20993 8.28016,-1.35525 1.88303,2.08074 4.1143,7.9928 5.31125,14.07293 2.65121,13.46743 4.94081,22.50276 6.39409,25.23276 0.83936,1.57673 3.6699,4.90139 6.29008,7.38813 4.43506,4.20916 4.73871,4.65343 4.39784,6.43452 -0.41221,2.15391 -3.20088,4.99785 -5.45562,5.56375 -1.94127,0.48723 -5.93837,-1.82377 -8.98276,-5.19355 -1.96573,-2.17583 -4.68894,-7.19086 -5.99802,-11.04586 -0.31252,-0.92034 -1.12297,0.29542 -3.60515,5.40815 -4.76879,9.82262 -10.06122,14.26513 -17.78087,14.9254 -1.78917,0.15303 -4.61558,0.014 -6.28092,-0.309 z m 8.90736,-10.34674 c 3.68644,-1.54029 7.06199,-6.55825 10.85538,-16.13721 2.72092,-6.87077 2.81957,-8.54474 0.96472,-16.36915 -0.90427,-3.81448 -1.7461,-7.0365 -1.87074,-7.16004 -0.12465,-0.12355 -2.12467,-0.0158 -4.44449,0.23939 -6.8515,0.75375 -10.78998,3.32817 -15.21655,9.94644 -3.25213,4.86233 -5.32561,10.29417 -5.86533,15.36517 -0.3148,2.95771 -0.14886,3.76322 1.33799,6.49505 1.67803,3.0831 4.263,5.55568 7.75946,7.42207 2.232,1.19144 3.97496,1.24477 6.47956,0.19828 z m -65.75373,9.662 c -2.36203,-1.7802 -3.07187,-5.14211 -3.00917,-14.25202 0.0826,-12.00798 3.173,-33.25991 5.11959,-35.20649 1.38695,-1.38695 5.02312,-1.68958 6.74498,-0.56137 2.08245,1.36447 2.07619,1.73151 -0.36932,21.66586 -0.52785,4.30277 -0.9167,13.21711 -1.1071,25.38087 -0.007,0.42756 -0.67499,1.4402 -1.48511,2.25031 -1.61384,1.61386 -4.27811,1.9406 -5.89387,0.72284 z m 4.26581,-66.60001 c -1.14372,-1.14372 -2.4358,-2.9397 -2.87129,-3.99107 -0.68212,-1.64678 -0.65191,-2.22038 0.21808,-4.14071 2.17089,-4.79187 2.65754,-5.0996 7.28133,-4.60444 3.38787,0.36281 4.43496,0.74401 5.80389,2.11294 1.91685,1.91686 2.20353,4.72544 0.82026,8.03608 -1.06608,2.5515 -2.96574,3.81591 -6.45069,4.29358 -2.52837,0.34655 -2.8701,0.22511 -4.80158,-1.70638 z"
       style="fill:#0e2033;fill-opacity:1" />
  </g>
</svg>
